<svg width="33" height="33" viewBox="0 0 33 33" fill="none" xmlns="http://www.w3.org/2000/svg">
<path d="M12.516 17.6357H16.5917C16.7964 17.6357 16.968 17.5666 17.1063 17.4282C17.2447 17.2899 17.3138 17.1183 17.3138 16.9136V11.6011C17.3138 11.3963 17.2447 11.2248 17.1063 11.0864C16.968 10.9481 16.7964 10.8789 16.5917 10.8789C16.3925 10.8789 16.2237 10.9481 16.0853 11.0864C15.947 11.2248 15.8778 11.3963 15.8778 11.6011V16.1997H12.516C12.3112 16.1997 12.1369 16.2689 11.993 16.4072C11.8547 16.5456 11.7855 16.7144 11.7855 16.9136C11.7855 17.1183 11.8547 17.2899 11.993 17.4282C12.1369 17.5666 12.3112 17.6357 12.516 17.6357ZM16.6 25.1646C15.4157 25.1646 14.3007 24.9377 13.2548 24.4839C12.2089 24.0356 11.2875 23.4131 10.4906 22.6162C9.69373 21.8193 9.0684 20.9007 8.61462 19.8604C8.16638 18.8145 7.94226 17.6966 7.94226 16.5068C7.94226 15.3226 8.16638 14.2103 8.61462 13.1699C9.0684 12.124 9.69096 11.2026 10.4823 10.4058C11.2792 9.60889 12.2006 8.98633 13.2465 8.53809C14.2924 8.08431 15.4074 7.85742 16.5917 7.85742C17.7759 7.85742 18.891 8.08431 19.9369 8.53809C20.9883 8.98633 21.9097 9.60889 22.701 10.4058C23.4979 11.2026 24.1233 12.124 24.577 13.1699C25.0308 14.2103 25.2577 15.3226 25.2577 16.5068C25.2577 17.6966 25.0308 18.8145 24.577 19.8604C24.1233 20.9007 23.4979 21.8193 22.701 22.6162C21.9097 23.4131 20.9911 24.0356 19.9452 24.4839C18.8993 24.9377 17.7842 25.1646 16.6 25.1646Z" fill="#EF1865"/>
</svg>
