<svg width="33" height="33" viewBox="0 0 33 33" fill="none" xmlns="http://www.w3.org/2000/svg">
<path d="M20.9895 11.0034C21.9026 11.0034 22.5999 11.2414 23.0813 11.7173C23.5628 12.1877 23.8035 12.8794 23.8035 13.7925V22.3589C23.8035 23.272 23.5711 23.9637 23.1062 24.4341C22.6414 24.91 21.9939 25.1479 21.1639 25.1479H13.3113C13.5659 24.7329 13.7651 24.2847 13.909 23.8032C14.0529 23.3273 14.1248 22.8293 14.1248 22.3091C14.1248 21.5509 13.9809 20.8398 13.6932 20.1758C13.4054 19.5117 13.007 18.9279 12.4978 18.4243C11.9887 17.9152 11.3994 17.5168 10.7298 17.229C10.0657 16.9357 9.35462 16.7891 8.59648 16.7891V13.7925C8.59648 12.8794 8.83444 12.1877 9.31035 11.7173C9.79179 11.2414 10.4918 11.0034 11.4104 11.0034H20.9895ZM12.639 11.377C12.639 10.7074 12.7939 10.1097 13.1038 9.58398C13.4137 9.05273 13.8343 8.63493 14.3655 8.33057C14.9023 8.02067 15.511 7.86572 16.1917 7.86572C16.8779 7.86572 17.4894 8.02067 18.0262 8.33057C18.563 8.63493 18.9863 9.05273 19.2962 9.58398C19.6061 10.1097 19.761 10.7074 19.761 11.377L18.0096 11.3853C18.0096 11.009 17.9321 10.6769 17.7771 10.3892C17.6222 10.0959 17.4091 9.86621 17.138 9.7002C16.8668 9.53418 16.5514 9.45117 16.1917 9.45117C15.8375 9.45117 15.5249 9.53418 15.2537 9.7002C14.9825 9.86621 14.7695 10.0959 14.6145 10.3892C14.4651 10.6769 14.3904 11.009 14.3904 11.3853L12.639 11.377ZM8.60478 26.6255C8.01266 26.6255 7.45651 26.512 6.93633 26.2852C6.41614 26.0583 5.9596 25.7456 5.5667 25.3472C5.16826 24.9543 4.8556 24.4977 4.62871 23.9775C4.40182 23.4574 4.28838 22.9012 4.28838 22.3091C4.28838 21.7114 4.40182 21.1553 4.62871 20.6406C4.8556 20.1204 5.16826 19.6611 5.5667 19.2627C5.9596 18.8643 6.41614 18.5544 6.93633 18.333C7.45651 18.1061 8.01266 17.9927 8.60478 17.9927C9.1969 17.9927 9.75306 18.1061 10.2732 18.333C10.7934 18.5544 11.2527 18.8643 11.6512 19.2627C12.0496 19.6556 12.3595 20.1121 12.5809 20.6323C12.8022 21.1525 12.9129 21.7114 12.9129 22.3091C12.9129 22.8957 12.7994 23.4491 12.5726 23.9692C12.3512 24.4894 12.0413 24.9487 11.6429 25.3472C11.2444 25.7456 10.7851 26.0583 10.2649 26.2852C9.74476 26.512 9.19137 26.6255 8.60478 26.6255ZM8.59648 25.0649C8.7791 25.0649 8.92575 25.0096 9.03642 24.8989C9.1471 24.7882 9.20244 24.6416 9.20244 24.459V22.915H10.7464C10.9235 22.915 11.0673 22.8597 11.178 22.749C11.2942 22.6383 11.3523 22.4917 11.3523 22.3091C11.3523 22.1265 11.2942 21.9798 11.178 21.8691C11.0673 21.7585 10.9235 21.7031 10.7464 21.7031H9.20244V20.1675C9.20244 19.9849 9.1471 19.8382 9.03642 19.7275C8.92575 19.6169 8.7791 19.5615 8.59648 19.5615C8.41386 19.5615 8.26722 19.6169 8.15654 19.7275C8.04586 19.8382 7.99052 19.9849 7.99052 20.1675V21.7031H6.44658C6.26396 21.7031 6.11731 21.7585 6.00664 21.8691C5.89596 21.9798 5.84062 22.1265 5.84062 22.3091C5.84062 22.4917 5.89873 22.6383 6.01494 22.749C6.12562 22.8597 6.2695 22.915 6.44658 22.915H7.99052V24.459C7.99052 24.6416 8.04586 24.7882 8.15654 24.8989C8.26722 25.0096 8.41386 25.0649 8.59648 25.0649Z" fill="#EF1865"/>
</svg>
