<svg width="33" height="33" viewBox="0 0 33 33" fill="none" xmlns="http://www.w3.org/2000/svg">
<path d="M16.8003 25.1646C15.616 25.1646 14.501 24.9377 13.4551 24.4839C12.4092 24.0356 11.4878 23.4131 10.6909 22.6162C9.89404 21.8193 9.26872 20.9007 8.81494 19.8604C8.3667 18.8145 8.14258 17.6966 8.14258 16.5068C8.14258 15.3226 8.3667 14.2103 8.81494 13.1699C9.26872 12.124 9.89128 11.2026 10.6826 10.4058C11.4795 9.60889 12.4009 8.98633 13.4468 8.53809C14.4927 8.08431 15.6077 7.85742 16.792 7.85742C17.9762 7.85742 19.0913 8.08431 20.1372 8.53809C21.1886 8.98633 22.11 9.60889 22.9014 10.4058C23.6982 11.2026 24.3236 12.124 24.7773 13.1699C25.2311 14.2103 25.458 15.3226 25.458 16.5068C25.458 17.6966 25.2311 18.8145 24.7773 19.8604C24.3236 20.9007 23.6982 21.8193 22.9014 22.6162C22.11 23.4131 21.1914 24.0356 20.1455 24.4839C19.0996 24.9377 17.9845 25.1646 16.8003 25.1646ZM12.708 17.8433C13.0788 17.8433 13.3942 17.7132 13.6543 17.4531C13.9199 17.1875 14.0527 16.8693 14.0527 16.4985C14.0527 16.1278 13.9199 15.8123 13.6543 15.5522C13.3887 15.2866 13.0732 15.1538 12.708 15.1538C12.3372 15.1538 12.019 15.2866 11.7534 15.5522C11.4933 15.8123 11.3633 16.1278 11.3633 16.4985C11.3633 16.8693 11.4933 17.1875 11.7534 17.4531C12.019 17.7132 12.3372 17.8433 12.708 17.8433ZM16.8003 17.8433C17.1711 17.8433 17.4865 17.7132 17.7466 17.4531C18.0067 17.1875 18.1367 16.8693 18.1367 16.4985C18.1367 16.1278 18.0067 15.8123 17.7466 15.5522C17.4865 15.2866 17.1711 15.1538 16.8003 15.1538C16.4295 15.1538 16.1113 15.2866 15.8457 15.5522C15.5856 15.8123 15.4556 16.1278 15.4556 16.4985C15.4556 16.8693 15.5856 17.1875 15.8457 17.4531C16.1113 17.7132 16.4295 17.8433 16.8003 17.8433ZM20.8926 17.8433C21.2578 17.8433 21.5732 17.7132 21.8389 17.4531C22.1045 17.1875 22.2373 16.8693 22.2373 16.4985C22.2373 16.1278 22.1045 15.8123 21.8389 15.5522C21.5732 15.2866 21.2578 15.1538 20.8926 15.1538C20.5218 15.1538 20.2036 15.2866 19.938 15.5522C19.6779 15.8123 19.5479 16.1278 19.5479 16.4985C19.5479 16.8693 19.6779 17.1875 19.938 17.4531C20.2036 17.7132 20.5218 17.8433 20.8926 17.8433Z" fill="#EF1865"/>
</svg>
