<svg width="50" height="50" viewBox="0 0 50 50" fill="none" xmlns="http://www.w3.org/2000/svg">
<rect width="50" height="50" rx="25" fill="#AD164D"/>
<path d="M20.667 32.0459C20.3626 32.0459 20.1191 31.9352 19.9365 31.7139C19.7594 31.498 19.6709 31.2103 19.6709 30.8506V19.1797C19.6709 18.82 19.7594 18.5322 19.9365 18.3164C20.1191 18.1006 20.3626 17.9927 20.667 17.9927C20.833 17.9927 20.9907 18.0231 21.1401 18.084C21.2896 18.1393 21.4473 18.214 21.6133 18.3081L31.292 23.9111C31.6406 24.1104 31.8813 24.2902 32.0142 24.4507C32.1525 24.6056 32.2217 24.7938 32.2217 25.0151C32.2217 25.2365 32.1525 25.4274 32.0142 25.5879C31.8813 25.7428 31.6406 25.9227 31.292 26.1274L21.6133 31.7222C21.4473 31.8218 21.2896 31.8993 21.1401 31.9546C20.9907 32.0155 20.833 32.0459 20.667 32.0459Z" fill="white"/>
</svg>
