<svg width="27" height="22" viewBox="0 0 27 22" fill="none" xmlns="http://www.w3.org/2000/svg">
<path d="M17.5454 20.0547C17.0916 20.0547 16.6766 19.9412 16.3003 19.7144C15.9295 19.493 15.6335 19.1942 15.4121 18.8179C15.1908 18.4471 15.0801 18.0348 15.0801 17.5811C15.0801 17.1328 15.1908 16.7205 15.4121 16.3442C15.6335 15.9679 15.9295 15.6691 16.3003 15.4478C16.6766 15.2264 17.0916 15.1157 17.5454 15.1157C17.9992 15.1157 18.4115 15.2264 18.7822 15.4478C19.1585 15.6691 19.4574 15.9679 19.6787 16.3442C19.9056 16.7205 20.019 17.1328 20.019 17.5811C20.019 18.0348 19.9056 18.4471 19.6787 18.8179C19.4574 19.1942 19.1585 19.493 18.7822 19.7144C18.4115 19.9412 17.9992 20.0547 17.5454 20.0547ZM17.5454 18.876C17.9106 18.876 18.2178 18.7487 18.4668 18.4941C18.7158 18.2451 18.8403 17.9408 18.8403 17.5811C18.8403 17.2158 18.7158 16.9087 18.4668 16.6597C18.2178 16.4106 17.9106 16.2861 17.5454 16.2861C17.1857 16.2861 16.8813 16.4106 16.6323 16.6597C16.3833 16.9087 16.2588 17.2158 16.2588 17.5811C16.2588 17.9408 16.3833 18.2451 16.6323 18.4941C16.8813 18.7487 17.1857 18.876 17.5454 18.876ZM15.8354 16.8423V18.3115H3.6582C3.44792 18.3115 3.27083 18.2396 3.12695 18.0957C2.98861 17.9574 2.91943 17.7858 2.91943 17.5811C2.91943 17.3763 2.98861 17.202 3.12695 17.0581C3.27083 16.9142 3.44792 16.8423 3.6582 16.8423H15.8354ZM23.5635 16.8423C23.7516 16.8423 23.9149 16.9142 24.0532 17.0581C24.1971 17.202 24.269 17.3763 24.269 17.5811C24.269 17.7858 24.1971 17.9574 24.0532 18.0957C23.9149 18.2396 23.7516 18.3115 23.5635 18.3115H19.3799V16.8423H23.5635ZM9.85059 13.5054C9.40234 13.5054 8.99007 13.3947 8.61377 13.1733C8.23747 12.952 7.93864 12.6559 7.71729 12.2852C7.49593 11.9089 7.38525 11.4938 7.38525 11.04C7.38525 10.5863 7.49593 10.174 7.71729 9.80322C7.93864 9.42692 8.23747 9.12809 8.61377 8.90674C8.99007 8.67985 9.40234 8.56641 9.85059 8.56641C10.3044 8.56641 10.7166 8.67985 11.0874 8.90674C11.4637 9.12809 11.7625 9.42692 11.9839 9.80322C12.2108 10.174 12.3242 10.5863 12.3242 11.04C12.3242 11.4938 12.2108 11.9089 11.9839 12.2852C11.7625 12.6559 11.4637 12.952 11.0874 13.1733C10.7166 13.3947 10.3044 13.5054 9.85059 13.5054ZM9.85059 12.335C10.2158 12.335 10.5229 12.2104 10.772 11.9614C11.021 11.7069 11.1455 11.397 11.1455 11.0317C11.1455 10.6665 11.021 10.3594 10.772 10.1104C10.5229 9.86133 10.2158 9.73682 9.85059 9.73682C9.49089 9.73682 9.18652 9.86133 8.9375 10.1104C8.68848 10.3594 8.56396 10.6665 8.56396 11.0317C8.56396 11.397 8.68848 11.7069 8.9375 11.9614C9.18652 12.2104 9.49089 12.335 9.85059 12.335ZM3.625 10.3013H8.04102V11.7705H3.625C3.43132 11.7705 3.2653 11.6986 3.12695 11.5547C2.98861 11.4108 2.91943 11.2365 2.91943 11.0317C2.91943 10.827 2.98861 10.6554 3.12695 10.5171C3.2653 10.3732 3.43132 10.3013 3.625 10.3013ZM23.5303 10.3013C23.735 10.3013 23.9093 10.3732 24.0532 10.5171C24.1971 10.6554 24.269 10.827 24.269 11.0317C24.269 11.2365 24.1971 11.4108 24.0532 11.5547C23.9093 11.6986 23.735 11.7705 23.5303 11.7705H11.5688V10.3013H23.5303ZM17.5454 6.94775C17.0916 6.94775 16.6766 6.83708 16.3003 6.61572C15.9295 6.38883 15.6335 6.09001 15.4121 5.71924C15.1908 5.34294 15.0801 4.9279 15.0801 4.47412C15.0801 4.02588 15.1908 3.61361 15.4121 3.2373C15.6335 2.861 15.9295 2.56217 16.3003 2.34082C16.6766 2.11947 17.0916 2.00879 17.5454 2.00879C17.9992 2.00879 18.4115 2.11947 18.7822 2.34082C19.1585 2.56217 19.4574 2.861 19.6787 3.2373C19.9056 3.61361 20.019 4.02588 20.019 4.47412C20.019 4.9279 19.9056 5.34294 19.6787 5.71924C19.4574 6.09001 19.1585 6.38883 18.7822 6.61572C18.4115 6.83708 17.9992 6.94775 17.5454 6.94775ZM17.5454 5.76904C17.9106 5.76904 18.2178 5.64453 18.4668 5.39551C18.7158 5.14095 18.8403 4.83382 18.8403 4.47412C18.8403 4.10889 18.7158 3.80176 18.4668 3.55273C18.2178 3.30371 17.9106 3.1792 17.5454 3.1792C17.1857 3.1792 16.8813 3.30371 16.6323 3.55273C16.3833 3.80176 16.2588 4.10889 16.2588 4.47412C16.2588 4.83382 16.3833 5.14095 16.6323 5.39551C16.8813 5.64453 17.1857 5.76904 17.5454 5.76904ZM15.8604 3.75195V5.22119H3.6582C3.44792 5.22119 3.27083 5.15202 3.12695 5.01367C2.98861 4.86979 2.91943 4.69548 2.91943 4.49072C2.91943 4.28597 2.98861 4.11165 3.12695 3.96777C3.27083 3.82389 3.44792 3.75195 3.6582 3.75195H15.8604ZM23.5635 3.75195C23.7516 3.75195 23.9149 3.82389 24.0532 3.96777C24.1971 4.11165 24.269 4.28597 24.269 4.49072C24.269 4.69548 24.1971 4.86979 24.0532 5.01367C23.9149 5.15202 23.7516 5.22119 23.5635 5.22119H19.2886V3.75195H23.5635Z" fill="#EF1865"/>
</svg>
