<svg width="32" height="33" viewBox="0 0 32 33" fill="none" xmlns="http://www.w3.org/2000/svg">
<path d="M7.03516 24.3345C6.38216 24.3345 5.88135 24.1629 5.53271 23.8198C5.18408 23.4823 5.00977 23.0008 5.00977 22.3755V15.4443C5.00977 14.819 5.18408 14.3348 5.53271 13.9917C5.88135 13.6486 6.38216 13.4771 7.03516 13.4771H9.30957C9.9681 13.4771 10.4717 13.6486 10.8203 13.9917C11.1689 14.3348 11.3433 14.8162 11.3433 15.436V22.3755C11.3433 23.0008 11.1689 23.4823 10.8203 23.8198C10.4717 24.1629 9.9681 24.3345 9.30957 24.3345H7.03516ZM14.8545 24.3345C14.2015 24.3345 13.7007 24.1629 13.3521 23.8198C13.0034 23.4823 12.8291 23.0008 12.8291 22.3755V13.0122C12.8291 12.3869 13.0034 11.9027 13.3521 11.5596C13.7007 11.2165 14.2015 11.0449 14.8545 11.0449H17.1372C17.7902 11.0449 18.291 11.2165 18.6396 11.5596C18.9883 11.9027 19.1626 12.3841 19.1626 13.0039V22.3755C19.1626 23.0008 18.9883 23.4823 18.6396 23.8198C18.291 24.1629 17.7902 24.3345 17.1372 24.3345H14.8545ZM22.6738 24.3345C22.0264 24.3345 21.5283 24.1629 21.1797 23.8198C20.8311 23.4823 20.6567 23.0008 20.6567 22.3755V10.5884C20.6567 9.96305 20.8311 9.48161 21.1797 9.14404C21.5283 8.80094 22.0264 8.62939 22.6738 8.62939H24.9565C25.6095 8.62939 26.1104 8.80094 26.459 9.14404C26.8132 9.48161 26.9902 9.96305 26.9902 10.5884V22.3755C26.9902 23.0008 26.8132 23.4823 26.459 23.8198C26.1104 24.1629 25.6095 24.3345 24.9565 24.3345H22.6738Z" fill="#EF1865"/>
</svg>
