<svg width="33" height="33" viewBox="0 0 33 33" fill="none" xmlns="http://www.w3.org/2000/svg">
<path d="M11.7354 26.4927C10.8167 26.4927 10.1167 26.2547 9.63525 25.7788C9.15934 25.3084 8.92139 24.6167 8.92139 23.7036V14.3237C8.92139 13.4106 9.15934 12.7189 9.63525 12.2485C10.1167 11.7726 10.8167 11.5347 11.7354 11.5347H21.0654C21.984 11.5347 22.6813 11.7726 23.1572 12.2485C23.6387 12.7189 23.8794 13.4106 23.8794 14.3237V23.7036C23.8794 24.6112 23.647 25.3029 23.1821 25.7788C22.7228 26.2547 22.0781 26.4927 21.248 26.4927H11.7354ZM10.7725 10.2314C10.8278 9.82194 10.9689 9.50374 11.1958 9.27686C11.4282 9.04997 11.7769 8.93652 12.2417 8.93652H20.4512C20.9215 8.93652 21.2702 9.04997 21.4971 9.27686C21.7295 9.50374 21.8734 9.82194 21.9287 10.2314H10.7725ZM12.1836 7.74121C12.2168 7.35384 12.3468 7.05778 12.5737 6.85303C12.8062 6.64827 13.1299 6.5459 13.5449 6.5459H19.1562C19.5713 6.5459 19.8923 6.64827 20.1191 6.85303C20.3516 7.05778 20.4844 7.35384 20.5176 7.74121H12.1836ZM14.9644 22.4502L19.6958 19.6694C19.8563 19.5754 19.9614 19.4481 20.0112 19.2876C20.0666 19.1271 20.0666 18.9666 20.0112 18.8062C19.9559 18.6457 19.8507 18.5212 19.6958 18.4326L14.9644 15.6353C14.7983 15.5356 14.6268 15.4941 14.4497 15.5107C14.2782 15.5273 14.1343 15.5938 14.0181 15.71C13.9019 15.8206 13.8438 15.9728 13.8438 16.1665V21.9189C13.8438 22.1126 13.9019 22.2676 14.0181 22.3838C14.1343 22.5 14.2782 22.5664 14.4497 22.583C14.6213 22.5996 14.7928 22.5553 14.9644 22.4502Z" fill="#EF1865"/>
</svg>
